<?xml version="1.0" standalone="no"?><!DOCTYPE svg PUBLIC "-//W3C//DTD SVG 1.1//EN" "http://www.w3.org/Graphics/SVG/1.1/DTD/svg11.dtd"><svg t="1611469131688" class="icon" viewBox="0 0 1024 1024" version="1.1" xmlns="http://www.w3.org/2000/svg" p-id="1517" xmlns:xlink="http://www.w3.org/1999/xlink" width="200" height="200"><defs><style type="text/css"></style></defs><path d="M512 149.504a21.184 21.184 0 0 0-12.608 4.138667l-341.333333 250.645333a21.461333 21.461333 0 0 0-8.725334 17.301333l0.832 431.637334a21.333333 21.333333 0 0 0 21.333334 21.333333H853.333333a21.333333 21.333333 0 0 0 21.333334-21.333333V421.589333a21.461333 21.461333 0 0 0-8.725334-17.258666L524.586667 153.6a21.184 21.184 0 0 0-12.586667-4.096M512 85.333333a85.098667 85.098667 0 0 1 50.432 16.533334l341.333333 250.709333A85.610667 85.610667 0 0 1 938.666667 421.589333v431.573334A85.333333 85.333333 0 0 1 853.333333 938.666667H171.562667a85.44 85.44 0 0 1-85.333334-85.333334L85.333333 421.696a85.610667 85.610667 0 0 1 34.901334-69.162667l341.333333-250.645333A85.098667 85.098667 0 0 1 512 85.333333z" fill="#333333" p-id="1518"></path><path d="M597.333333 874.666667V661.333333a21.333333 21.333333 0 0 0-21.333333-21.333333h-128a21.333333 21.333333 0 0 0-21.333333 21.333333v213.333334h-64V661.333333a85.333333 85.333333 0 0 1 85.333333-85.333333h128a85.333333 85.333333 0 0 1 85.333333 85.333333v213.333334h-64z" fill="#FF9C00" p-id="1519"></path></svg>