<?xml version="1.0" standalone="no"?><!DOCTYPE svg PUBLIC "-//W3C//DTD SVG 1.1//EN" "http://www.w3.org/Graphics/SVG/1.1/DTD/svg11.dtd"><svg t="1611469095084" class="icon" viewBox="0 0 1024 1024" version="1.1" xmlns="http://www.w3.org/2000/svg" p-id="1386" xmlns:xlink="http://www.w3.org/1999/xlink" width="200" height="200"><defs><style type="text/css"></style></defs><path d="M138.666667 938.666667a32 32 0 0 0 27.306666-15.978667 402.133333 402.133333 0 0 1 692.288 0 32 32 0 0 0 27.306667 15.978667 32 32 0 0 0 27.050667-48.576A468.757333 468.757333 0 0 0 663.210667 686.933333a318.378667 318.378667 0 1 0-302.421334 0 468.842667 468.842667 0 0 0-249.301333 203.221334A32 32 0 0 0 138.666667 938.666667z m118.741333-533.546667A254.698667 254.698667 0 1 1 512 661.205333a255.402667 255.402667 0 0 1-254.698667-256.106666z" fill="#333333" p-id="1387"></path><path d="M512 575.765333a161.045333 161.045333 0 0 0 119.765333-53.973333 31.210667 31.210667 0 0 0-2.368-44.522667 32.32 32.32 0 0 0-45.184 2.346667 95.338667 95.338667 0 0 1-144.426666 0 32.32 32.32 0 0 0-45.184-2.346667 31.189333 31.189333 0 0 0-2.368 44.522667A160.981333 160.981333 0 0 0 512 575.765333z" fill="#FF9C00" p-id="1388"></path></svg>